PathFileType	4	(X/Y/Z)	/Users/niels/Desktop/University/Third Semester/Perception and Action/Exam/Gymnastics Motion Tracking/Code for Gym Tracking/Analyzed Data/Webcam_Backflip/id2001_2_trajectory_Sports2D/id2001_2_trajectory_Sports2D_px_person00.trc
DataRate	CameraRate	NumFrames	NumMarkers	Units	OrigDataRate	OrigDataStartFrame	OrigNumFrames
29.887218045112782	29.887218045112782	9	22	m	29.887218045112782	232	266
Frame#	Time	Hip			RHip			RKnee			RAnkle			RBigToe			RSmallToe			RHeel			LHip			LKnee			LAnkle			LBigToe			LSmallToe			LHeel			Neck			Head			Nose			RShoulder			RElbow			RWrist			LShoulder			LElbow			LWrist		
		X1	Y1	Z1	X2	Y2	Z2	X3	Y3	Z3	X4	Y4	Z4	X5	Y5	Z5	X6	Y6	Z6	X7	Y7	Z7	X8	Y8	Z8	X9	Y9	Z9	X10	Y10	Z10	X11	Y11	Z11	X12	Y12	Z12	X13	Y13	Z13	X14	Y14	Z14	X15	Y15	Z15	X16	Y16	Z16	X17	Y17	Z17	X18	Y18	Z18	X19	Y19	Z19	X20	Y20	Z20	X21	Y21	Z21	X22	Y22	Z22
232	7.762515723270441	0.9585194268120797	-0.7460537308664117	0.0	0.9325717255393264	-0.7530396747285031	0.0	0.9314933722813853	-1.0664045645568776	0.0	0.6628592602583986	-1.022597737405306	0.0	0.5865923154442675	-1.0240249246511886	0.0	0.4840313806118385	-1.011593279311485	0.0	0.691537981493579	-0.9669199981472981	0.0	0.990847899830322	-0.7612897273933629	0.0	0.9852778023772416	-1.062998785362656	0.0	0.8608555118292909	-1.074955656705103	0.0	0.6527685544256203	-1.0393212910731564	0.0	0.6518583977003047	-1.0333486498285729	0.0	0.6853124808272337	-0.9606944354984346	0.0	1.0677293663399194	-0.2541150449670826	0.0	1.1722456985905483	-0.0664852822344353	0.0	1.1698613345668372	-0.17877611456499334	0.0	1.0133426096711133	-0.2745927232575244	0.0	0.8430766316022679	-0.4203009560097985	0.0	0.9303447963770718	-0.6710520601515669	0.0	1.0865121640467217	-0.32105045130535376	0.0	1.000574973357332	-0.4854569653262428	0.0	1.018805954181767	-0.6740282012216025	0.0
233	7.795974842767297	0.960163040294839	-0.7443747477800425	0.0	0.936234752038865	-0.7534548898401054	0.0	0.9366805736261137	-1.06616472471049	0.0	0.6628593725489689	-1.0225970962215754	0.0	0.5865922921893069	-1.0240249099948138	0.0	0.48403126719100287	-1.0115932667776768	0.0	0.6915380246772828	-0.9669199803139693	0.0	0.9909847358146837	-0.7602130022487548	0.0	0.9856048912207876	-1.0629592818391636	0.0	0.8205406068028983	-1.0777912981941007	0.0	0.6527685530629327	-1.0393212914155225	0.0	0.651858397594569	-1.0333486411098096	0.0	0.685312500559733	-0.9606944076841044	0.0	1.058594953164793	-0.24937444668904396	0.0	1.158176735865095	-0.06147953147609794	0.0	1.1583678478156791	-0.17197404339186867	0.0	1.005368529207568	-0.27231078589218793	0.0	0.8384468094914239	-0.42077708551436327	0.0	0.9311403525224119	-0.6698909658517429	0.0	1.077944674476054	-0.3168063858042284	0.0	0.9856481158558247	-0.484375824441818	0.0	1.0130364164430472	-0.6721335146506462	0.0
234	7.829433962264152	0.9621394626110642	-0.7428159776551915	0.0	0.9391977444969373	-0.7533936886524117	0.0	0.941418400003749	-1.0657230720830546	0.0	0.6628594195640355	-1.022596719150226	0.0	0.5865922806919548	-1.0240249018802203	0.0	0.4840312157322055	-1.0115932602386954	0.0	0.6915380590328836	-0.966919957184276	0.0	0.99212332869704	-0.7589964959667184	0.0	0.9876315093162277	-1.0626315503518593	0.0	0.7944390468360462	-1.0795698732817456	0.0	0.6527685529387555	-1.0393212909219567	0.0	0.6518583977783616	-1.033348635271901	0.0	0.6853125085543125	-0.960694376843557	0.0	1.0501537583609686	-0.24544280168690621	0.0	1.1442525581772733	-0.05690546925397086	0.0	1.1472334516523983	-0.16617099543707903	0.0	0.997633352279249	-0.2706805784999866	0.0	0.8344236071584882	-0.42226016952790624	0.0	0.9317196382708357	-0.6689674107368453	0.0	1.0711935559489794	-0.3129605065634751	0.0	0.9808941079748992	-0.4824165996841852	0.0	1.0110920040006863	-0.6679723169670763	0.0
235	7.862893081761007	0.9644526109002236	-0.7416673450757992	0.0	0.9415424773458292	-0.7532378871600762	0.0	0.9451227870811452	-1.0651872149113035	0.0	0.6628594269476131	-1.0225965528466945	0.0	0.5865922771503905	-1.0240248986555733	0.0	0.4840312037361056	-1.0115932579387434	0.0	0.6915380804743635	-0.9669199381091141	0.0	0.994076440096276	-0.7580180253024665	0.0	0.990524635043995	-1.062223760775264	0.0	0.7809383788405834	-1.080453089961904	0.0	0.652768553359343	-1.0393212902164912	0.0	0.651858398032081	-1.0333486321984047	0.0	0.6853125095463537	-0.9606943530752126	0.0	1.0423227478852526	-0.24226827461387185	0.0	1.1307067788938177	-0.052820728409998866	0.0	1.1365902222033042	-0.16132840587484612	0.0	0.9902799310344911	-0.2695929926280558	0.0	0.831002425234508	-0.42478768852761234	0.0	0.9321489240516531	-0.6682809347436061	0.0	1.065725015085359	-0.3094708634654004	0.0	0.981784806626716	-0.4803867206147274	0.0	1.0120777939887393	-0.6636439407110077	0.0
236	7.896352201257863	0.9668628004390347	-0.741047439295584	0.0	0.9434255181953568	-0.7532251081860827	0.0	0.9475936022138385	-1.0647392233209925	0.0	0.6628594159790039	-1.022596518420656	0.0	0.5865922778485769	-1.0240248983195817	0.0	0.4840312112670711	-1.011593258009245	0.0	0.6915380907995101	-0.9669199258545503	0.0	0.9964255712961332	-0.7574179189268072	0.0	0.993487838220753	-1.0619271816648532	0.0	0.7762318183067195	-1.080731792597613	0.0	0.6527685538913268	-1.0393212896139028	0.0	0.6518583982462073	-1.0333486310953561	0.0	0.6853125073800622	-0.9606943386394856	0.0	1.034938984162701	-0.23975648728780694	0.0	1.1177810227671747	-0.04918952436924312	0.0	1.1264756324169711	-0.15737974350127254	0.0	0.9834129597963365	-0.268882573446182	0.0	0.8281133834834029	-0.42821795865428325	0.0	0.9326629810481466	-0.668021683765845	0.0	1.0608806028279008	-0.30633635626555616	0.0	0.984711074044183	-0.47874204670951775	0.0	1.0150321498659005	-0.6601766572115756	0.0
237	7.929811320754718	0.9690317373024736	-0.7409894623234876	0.0	0.9449249470644562	-0.7534923333549821	0.0	0.9489701840016118	-1.0645202922686108	0.0	0.6628594003941447	-1.0225965477227288	0.0	0.5865922801085538	-1.0240248992666892	0.0	0.48403122482682703	-1.011593259039251	0.0	0.6915380937498742	-0.9669199197220802	0.0	0.9986847929745419	-0.7571804065430647	0.0	0.9963127748940604	-1.0618354522723872	0.0	0.7764254087063823	-1.0806857510192005	0.0	0.6527685543257549	-1.0393212892163732	0.0	0.6518583983862138	-1.0333486311033375	0.0	0.6853125044945173	-0.9606943319513417	0.0	1.0278323968818266	-0.23781692783285216	0.0	1.1057225715725534	-0.04592881340161882	0.0	1.1169130921594166	-0.15428757840695306	0.0	0.9770398170348542	-0.2684137619686435	0.0	0.8256781015224293	-0.43229727802064344	0.0	0.9335551088101659	-0.6684310917052962	0.0	1.0560365987244058	-0.30359779166620565	0.0	0.9873848836345738	-0.4777652527167982	0.0	1.019018468349902	-0.6578997744010402	0.0
238	7.9632704402515735	0.9706803086538415	-0.7415192485581418	0.0	0.9460838311920877	-0.7541805934185284	0.0	0.9496938479749404	-1.0645737342694401	0.0	0.662859387108814	-1.0225965954255503	0.0	0.5865922824034507	-1.0240249004879123	0.0	0.4840312372165691	-1.0115932601874245	0.0	0.6915380928598458	-0.9669199177714899	0.0	1.0004212280067168	-0.757297113776435	0.0	0.9993667706720087	-1.0619520146693031	0.0	0.7785895544685911	-1.0805180774993544	0.0	0.6527685546026939	-1.0393212890107542	0.0	0.6518583984578469	-1.0333486315678002	0.0	0.6853125020906442	-0.9606943302660147	0.0	1.0208693134964573	-0.23638155128798646	0.0	1.094719595755671	-0.043001349024509035	0.0	1.1079475062081972	-0.15200289797401897	0.0	0.9710709422545409	-0.2681288465693656	0.0	0.8236558111835844	-0.4367491990325765	0.0	0.9350113509174774	-0.669604353337227	0.0	1.0507561847214193	-0.3012738670887158	0.0	0.9886713108341435	-0.4775156359667587	0.0	1.0231763627367731	-0.656747468200226	0.0
239	7.996729559748429	0.9717151723451514	-0.7425799516480927	0.0	0.9470116183119314	-0.7553495440951445	0.0	0.9504223520265189	-1.0648755896330975	0.0	0.6628593783573947	-1.0225966378530027	0.0	0.5865922840935512	-1.0240249014927791	0.0	0.48403124578031376	-1.0115932610745764	0.0	0.6915380906246458	-0.9669199180734968	0.0	1.0014074329911256	-0.7577837094062587	0.0	1.0032277345703051	-1.0622307488476093	0.0	0.7809832164530933	-1.0803454359725255	0.0	0.6527685547398971	-1.0393212889398364	0.0	0.651858398481927	-1.0333486320953773	0.0	0.6853125005342217	-0.9606943311005954	0.0	1.013997555365539	-0.23542139492987785	0.0	1.0848369357762462	-0.0404648900438693	0.0	1.0996150106297753	-0.15039643710315373	0.0	0.9653771296074426	-0.2680633120268026	0.0	0.8220404690394072	-0.44136932888504116	0.0	0.937046627648626	-0.6714436077071763	0.0	1.044865617692422	-0.2993651882026688	0.0	0.9881526641839243	-0.4778325491875325	0.0	1.0268085943999419	-0.6564404137886851	0.0
240	8.030188679245285	0.9723130903706829	-0.7439523129177783	0.0	0.9478634151142176	-0.7568885759132311	0.0	0.9517204209093891	-1.0653435736747543	0.0	0.6628593738388989	-1.0225966666549526	0.0	0.5865922850779659	-1.0240249021371997	0.0	0.4840312504540016	-1.0115932616146057	0.0	0.6915380884372608	-0.9669199192238915	0.0	1.0018180745242902	-0.7585805297265708	0.0	1.0082019774973834	-1.0625756813464455	0.0	0.7828257626018974	-1.0802173259703822	0.0	0.6527685547823969	-1.0393212889436587	0.0	0.6518583984798798	-1.0333486325066568	0.0	0.6853124997475838	-0.9606943327502105	0.0	1.0073188618842412	-0.234911068851898	0.0	1.0759562622617254	-0.03845701913396898	0.0	1.091872626064347	-0.14926433377243437	0.0	0.9598363598187886	-0.2683042860516142	0.0	0.8208316207623152	-0.4461249366046946	0.0	0.9395258875468928	-0.6737261585178848	0.0	1.0384719716905313	-0.29785902646030266	0.0	0.9859884930725614	-0.4784828123891609	0.0	1.0296249886790496	-0.6566626919407917	0.0
